<mxfile host="app.diagrams.net" modified="2023-08-29T09:49:37.593Z" agent="Mozilla/5.0 (Macintosh; Intel Mac OS X 10_15_7) AppleWebKit/537.36 (KHTML, like Gecko) Chrome/116.0.0.0 Safari/537.36" etag="Wr0OFW-7QNY3SybV2PgX" version="21.6.9" type="github">
  <diagram name="Page-1" id="O6h59sN97J3MhCvtdeix">
    <mxGraphModel dx="1514" dy="969" grid="1" gridSize="10" guides="1" tooltips="1" connect="1" arrows="1" fold="1" page="1" pageScale="1" pageWidth="850" pageHeight="1100" math="0" shadow="0">
      <root>
        <mxCell id="0" />
        <mxCell id="1" parent="0" />
        <mxCell id="EAtn4QmAmyuskcIKKUx5-1" value="Acquirer" style="shape=umlActor;verticalLabelPosition=bottom;verticalAlign=top;html=1;" vertex="1" parent="1">
          <mxGeometry x="100" y="80" width="60" height="120" as="geometry" />
        </mxCell>
        <mxCell id="EAtn4QmAmyuskcIKKUx5-5" value="Admin" style="shape=umlActor;verticalLabelPosition=bottom;verticalAlign=top;html=1;" vertex="1" parent="1">
          <mxGeometry x="100" y="350" width="60" height="120" as="geometry" />
        </mxCell>
      </root>
    </mxGraphModel>
  </diagram>
</mxfile>
